
v -0.402439 -2.023198 0.000000
v 0.402439 -2.023198 0.000000
v 1.146050 -1.715185 0.000000
v 1.715185 -1.146050 0.000000
v 2.023198 -0.402439 0.000000
v 2.023198 0.402439 -0.000000
v 1.715185 1.146050 -0.000000
v 1.146049 1.715185 -0.000000
v 0.402439 2.023198 -0.000000
v -0.402439 2.023198 -0.000000
v -1.146050 1.715184 -0.000000
v -1.715185 1.146049 -0.000000
v -2.023198 0.402439 -0.000000
v -2.023198 -0.402439 0.000000
v -1.715184 -1.146050 0.000000
v -1.146049 -1.715185 0.000000
v 0.000000 -2.062835 0.000000
v 0.789413 -1.905811 0.000000
v 1.458645 -1.458645 0.000000
v 1.905811 -0.789413 0.000000
v 2.062835 0.000000 -0.000000
v 1.905811 0.789413 -0.000000
v 1.458644 1.458645 -0.000000
v 0.789413 1.905811 -0.000000
v -0.000000 2.062835 -0.000000
v -0.789413 1.905811 -0.000000
v -1.458645 1.458644 -0.000000
v -1.905811 0.789412 -0.000000
v -2.062835 -0.000000 0.000000
v -1.905811 -0.789413 0.000000
v -1.458644 -1.458645 0.000000
v -0.789413 -1.905811 0.000000
v -0.000000 -0.000000 0.000000
vt 0.402455 0.009607
vt 0.597545 0.009607
vt 0.777785 0.084265
vt 0.915735 0.222215
vt 0.990393 0.402455
vt 0.990393 0.597545
vt 0.915735 0.777785
vt 0.777785 0.915735
vt 0.597545 0.990393
vt 0.402455 0.990393
vt 0.222215 0.915735
vt 0.084265 0.777785
vt 0.009607 0.597545
vt 0.009607 0.402455
vt 0.084265 0.222215
vt 0.222215 0.084265
vt 0.500000 0.000000
vt 0.691342 0.038060
vt 0.853553 0.146447
vt 0.961940 0.308658
vt 1.000000 0.500000
vt 0.961940 0.691342
vt 0.853553 0.853553
vt 0.691342 0.961940
vt 0.500000 1.000000
vt 0.308658 0.961940
vt 0.146447 0.853553
vt 0.038060 0.691342
vt 0.000000 0.500000
vt 0.038060 0.308658
vt 0.146447 0.146446
vt 0.308658 0.038060
vt 0.500000 0.500000
vn 0.000000 0.000000 1.000000
vn 0.000000 0.000000 1.000000
vn 0.000000 0.000000 1.000000
vn 0.000000 0.000000 1.000000
vn 0.000000 0.000000 1.000000
vn 0.000000 0.000000 1.000000
vn 0.000000 0.000000 1.000000
vn 0.000000 0.000000 1.000000
vn 0.000000 0.000000 1.000000
vn 0.000000 0.000000 1.000000
vn 0.000000 0.000000 1.000000
vn 0.000000 0.000000 1.000000
vn 0.000000 0.000000 1.000000
vn 0.000000 0.000000 1.000000
vn 0.000000 0.000000 1.000000
vn 0.000000 0.000000 1.000000
vn 0.000000 0.000000 1.000000
vn 0.000000 0.000000 1.000000
vn 0.000000 0.000000 1.000000
vn 0.000000 0.000000 1.000000
vn 0.000000 0.000000 1.000000
vn 0.000000 0.000000 1.000000
vn 0.000000 0.000000 1.000000
vn 0.000000 0.000000 1.000000
vn 0.000000 0.000000 1.000000
vn 0.000000 0.000000 1.000000
vn 0.000000 0.000000 1.000000
vn 0.000000 0.000000 1.000000
vn 0.000000 0.000000 1.000000
vn 0.000000 0.000000 1.000000
vn 0.000000 0.000000 1.000000
vn 0.000000 0.000000 1.000000
vn 0.000000 0.000000 1.000000
s 1
g pDisc1
usemtl initialShadingGroup
f 32/32/1 1/1/2 33/33/3
f 1/1/2 17/17/4 33/33/3
f 17/17/4 2/2/5 33/33/3
f 2/2/5 18/18/6 33/33/3
f 18/18/6 3/3/7 33/33/3
f 3/3/7 19/19/8 33/33/3
f 19/19/8 4/4/9 33/33/3
f 4/4/9 20/20/10 33/33/3
f 20/20/10 5/5/11 33/33/3
f 5/5/11 21/21/12 33/33/3
f 21/21/12 6/6/13 33/33/3
f 6/6/13 22/22/14 33/33/3
f 22/22/14 7/7/15 33/33/3
f 7/7/15 23/23/16 33/33/3
f 23/23/16 8/8/17 33/33/3
f 8/8/17 24/24/18 33/33/3
f 24/24/18 9/9/19 33/33/3
f 9/9/19 25/25/20 33/33/3
f 25/25/20 10/10/21 33/33/3
f 10/10/21 26/26/22 33/33/3
f 26/26/22 11/11/23 33/33/3
f 11/11/23 27/27/24 33/33/3
f 27/27/24 12/12/25 33/33/3
f 12/12/25 28/28/26 33/33/3
f 28/28/26 13/13/27 33/33/3
f 13/13/27 29/29/28 33/33/3
f 29/29/28 14/14/29 33/33/3
f 14/14/29 30/30/30 33/33/3
f 30/30/30 15/15/31 33/33/3
f 15/15/31 31/31/32 33/33/3
f 31/31/32 16/16/33 33/33/3
f 16/16/33 32/32/1 33/33/3
g default
v -0.402439 -2.023198 0.000000
v 0.402439 -2.023198 0.000000
v 1.146050 -1.715185 0.000000
v 1.715185 -1.146050 0.000000
v 2.023198 -0.402439 0.000000
v 2.023198 0.402439 -0.000000
v 1.715185 1.146050 -0.000000
v 1.146049 1.715185 -0.000000
v 0.402439 2.023198 -0.000000
v -0.402439 2.023198 -0.000000
v -1.146050 1.715184 -0.000000
v -1.715185 1.146049 -0.000000
v -2.023198 0.402439 -0.000000
v -2.023198 -0.402439 0.000000
v -1.715184 -1.146050 0.000000
v -1.146049 -1.715185 0.000000
v 0.000000 -2.062835 0.000000
v 0.789413 -1.905811 0.000000
v 1.458645 -1.458645 0.000000
v 1.905811 -0.789413 0.000000
v 2.062835 0.000000 -0.000000
v 1.905811 0.789413 -0.000000
v 1.458644 1.458645 -0.000000
v 0.789413 1.905811 -0.000000
v -0.000000 2.062835 -0.000000
v -0.789413 1.905811 -0.000000
v -1.458645 1.458644 -0.000000
v -1.905811 0.789412 -0.000000
v -2.062835 -0.000000 0.000000
v -1.905811 -0.789413 0.000000
v -1.458644 -1.458645 0.000000
v -0.789413 -1.905811 0.000000
v -0.000000 -0.000000 0.000000
vt 0.402455 0.009607
vt 0.597545 0.009607
vt 0.777785 0.084265
vt 0.915735 0.222215
vt 0.990393 0.402455
vt 0.990393 0.597545
vt 0.915735 0.777785
vt 0.777785 0.915735
vt 0.597545 0.990393
vt 0.402455 0.990393
vt 0.222215 0.915735
vt 0.084265 0.777785
vt 0.009607 0.597545
vt 0.009607 0.402455
vt 0.084265 0.222215
vt 0.222215 0.084265
vt 0.500000 0.000000
vt 0.691342 0.038060
vt 0.853553 0.146447
vt 0.961940 0.308658
vt 1.000000 0.500000
vt 0.961940 0.691342
vt 0.853553 0.853553
vt 0.691342 0.961940
vt 0.500000 1.000000
vt 0.308658 0.961940
vt 0.146447 0.853553
vt 0.038060 0.691342
vt 0.000000 0.500000
vt 0.038060 0.308658
vt 0.146447 0.146446
vt 0.308658 0.038060
vt 0.500000 0.500000
vn 0.000000 0.000000 1.000000
vn 0.000000 0.000000 1.000000
vn 0.000000 0.000000 1.000000
vn 0.000000 0.000000 1.000000
vn 0.000000 0.000000 1.000000
vn 0.000000 0.000000 1.000000
vn 0.000000 0.000000 1.000000
vn 0.000000 0.000000 1.000000
vn 0.000000 0.000000 1.000000
vn 0.000000 0.000000 1.000000
vn 0.000000 0.000000 1.000000
vn 0.000000 0.000000 1.000000
vn 0.000000 0.000000 1.000000
vn 0.000000 0.000000 1.000000
vn 0.000000 0.000000 1.000000
vn 0.000000 0.000000 1.000000
vn 0.000000 0.000000 1.000000
vn 0.000000 0.000000 1.000000
vn 0.000000 0.000000 1.000000
vn 0.000000 0.000000 1.000000
vn 0.000000 0.000000 1.000000
vn 0.000000 0.000000 1.000000
vn 0.000000 0.000000 1.000000
vn 0.000000 0.000000 1.000000
vn 0.000000 0.000000 1.000000
vn 0.000000 0.000000 1.000000
vn 0.000000 0.000000 1.000000
vn 0.000000 0.000000 1.000000
vn 0.000000 0.000000 1.000000
vn 0.000000 0.000000 1.000000
vn 0.000000 0.000000 1.000000
vn 0.000000 0.000000 1.000000
vn 0.000000 0.000000 1.000000
s 1
g pDisc1
f 65/65/34 34/34/35 66/66/36
f 34/34/35 50/50/37 66/66/36
f 50/50/37 35/35/38 66/66/36
f 35/35/38 51/51/39 66/66/36
f 51/51/39 36/36/40 66/66/36
f 36/36/40 52/52/41 66/66/36
f 52/52/41 37/37/42 66/66/36
f 37/37/42 53/53/43 66/66/36
f 53/53/43 38/38/44 66/66/36
f 38/38/44 54/54/45 66/66/36
f 54/54/45 39/39/46 66/66/36
f 39/39/46 55/55/47 66/66/36
f 55/55/47 40/40/48 66/66/36
f 40/40/48 56/56/49 66/66/36
f 56/56/49 41/41/50 66/66/36
f 41/41/50 57/57/51 66/66/36
f 57/57/51 42/42/52 66/66/36
f 42/42/52 58/58/53 66/66/36
f 58/58/53 43/43/54 66/66/36
f 43/43/54 59/59/55 66/66/36
f 59/59/55 44/44/56 66/66/36
f 44/44/56 60/60/57 66/66/36
f 60/60/57 45/45/58 66/66/36
f 45/45/58 61/61/59 66/66/36
f 61/61/59 46/46/60 66/66/36
f 46/46/60 62/62/61 66/66/36
f 62/62/61 47/47/62 66/66/36
f 47/47/62 63/63/63 66/66/36
f 63/63/63 48/48/64 66/66/36
f 48/48/64 64/64/65 66/66/36
f 64/64/65 49/49/66 66/66/36
f 49/49/66 65/65/34 66/66/36
